<?xml version="1.0" encoding="UTF-8"?><svg xmlns="http://www.w3.org/2000/svg" viewBox="0 0 1486.07 1410.5"><defs><style>.d{fill:none;isolation:isolate;stroke:currentColor;stroke-linecap:round;stroke-linejoin:round;stroke-width:120px;}</style></defs><g id="a"/><g id="b"><g id="c"><g><line class="d" x1="296.6" y1="1110.79" x2="296.6" y2="1041.82"/><path class="d" d="M1339.86,622.71l-143.6,81.78-209.19,119.1c-21.09,12.06-42.95,22.62-65.57,30.91l-21.48,7.91c-109.32,36.94-227.65,33.92-334.7-7.91-22.62-8.29-44.46-18.84-65.96-30.91l-202.77-115.32-150.37-85.56c-114.96-65.59-114.96-231.42,0-297L498.99,124.44c151.13-85.92,336.94-85.92,488.07,0l352.79,201.27c114.95,65.58,114.95,231.41,0,297Z"/><path class="d" d="M1196.26,704.49v372c0,38.06-19.23,76.12-57.29,97.99l-233.68,133.05c-100.63,57.29-223.12,57.29-323.38,0l-234.05-133.05c-.81-.47-1.62-.95-2.41-1.44-30.61-18.71-48.84-52.42-48.84-88.3v-376.48l202.77,115.32c21.49,12.06,43.34,22.62,65.96,30.91,107.05,41.83,225.38,44.85,334.7,7.91l21.48-7.91c22.62-8.29,44.48-18.84,65.57-30.91l209.19-119.1Z"/><line class="d" x1="1426.07" y1="474.07" x2="1426.07" y2="888.13"/></g></g></g></svg>