<svg width="53" height="53" viewBox="0 0 53 53" fill="none" xmlns="http://www.w3.org/2000/svg">
<path d="M3.11582 16.041C1.07206 19.6291 0 23.6596 0 27.7566C0 31.8537 1.07206 35.8841 3.11582 39.4722V16.041Z" fill="white"/>
<path d="M27.1253 3.37194C25.0741 3.37308 23.0302 3.60256 21.0332 4.05582V7.89234C23.0165 7.35508 25.0658 7.08243 27.1253 7.08196C32.859 7.00156 38.3916 9.12776 42.5054 12.993C46.6192 16.8583 48.9774 22.1461 49.0626 27.6938C49.0565 32.6456 47.1699 37.4226 43.7616 41.1165L43.1361 43.2194L41.7513 47.8748C45.1956 45.68 48.0248 42.6948 49.9875 39.1852C51.9502 35.6757 52.9847 31.7508 52.9995 27.7605C52.9087 21.2059 50.1317 14.9545 45.2784 10.3807C40.4251 5.80696 33.8928 3.28534 27.1184 3.37024" fill="white"/>
<path d="M21.0391 40.5827H41.3223C44.7979 37.156 46.7463 32.5476 46.7501 27.7465C46.6979 22.7633 44.6027 18.0041 40.9246 14.5156C37.2465 11.027 32.2875 9.09472 27.1372 9.14348C25.0696 9.14383 23.0141 9.4535 21.0442 10.0616L21.0391 40.5827Z" fill="white"/>
<path d="M17.4407 0H2.67578L5.46345 5.47097V47.529L2.67578 53H36.5609L39.6342 42.6599H17.4389L17.4407 0Z" fill="white"/>
</svg>
