<?xml version="1.0" encoding="UTF-8"?><svg id="Calque_2" xmlns="http://www.w3.org/2000/svg" viewBox="0 0 27.56 27.56"><defs><style>.cls-1{fill:none;stroke:#fff;stroke-miterlimit:10;stroke-width:2px;}</style></defs><g id="Calque_1-2"><g><circle class="cls-1" cx="13.78" cy="13.78" r="12.78"/><path class="cls-1" d="M18.47,1.89V6.4c0,1.52-1.23,2.75-2.75,2.75h-1.64c-.37,0-.67,.3-.67,.67v1.21c0,1.52,1.23,2.75,2.75,2.75h0c1.28,0,2.31,1.04,2.31,2.31v.89c0,1.28,1.04,2.31,2.31,2.31h4.52"/><path class="cls-1" d="M1.09,12.3h3.8c1.27,0,2.3,1.03,2.3,2.3v.7c0,1.27,1.03,2.3,2.3,2.3h.71c1.16,0,2.14,.87,2.28,2.02h0c.12,.97-.38,1.9-1.26,2.34l-4.7,2.34"/></g></g></svg>