<?xml version="1.0" encoding="UTF-8"?><svg xmlns="http://www.w3.org/2000/svg" viewBox="0 0 1383.78 1387.39"><defs><style>.d{fill:#fff;}</style></defs><g id="a"/><g id="b"><g id="c"><path class="d" d="M446.46,862c-49.39-49.4-115.07-76.6-184.93-76.6-55.16,0-107.71,16.96-151.7,48.42-11.73,8.38-22.84,17.79-33.23,28.18C27.21,911.4,0,977.07,0,1046.93v78.93c0,69.86,27.21,135.54,76.6,184.93,10.39,10.39,21.5,19.8,33.23,28.18,43.99,31.46,96.54,48.42,151.7,48.42,69.86,0,135.54-27.2,184.93-76.6,49.4-49.39,76.6-115.07,76.6-184.93v-78.93c0-69.86-27.2-135.53-76.6-184.93Zm-25.84,263.86c0,41.55-16.18,80.6-45.55,109.97s-68.43,45.56-109.98,45.56c-32.71,0-63.84-9.9-90.04-28.64-7.05-5.03-13.74-10.71-19.94-16.91-29.38-29.38-45.55-68.44-45.55-109.98v-78.93c0-41.54,16.18-80.6,45.56-109.98,6.19-6.2,12.89-11.88,19.88-16.88,26.25-18.77,57.38-28.67,90.09-28.67,41.55,0,80.6,16.18,109.97,45.55s45.56,68.44,45.56,109.98v78.93Z"/><path class="d" d="M1307.18,862c-49.39-49.4-115.07-76.6-184.93-76.6-55.16,0-107.71,16.96-151.7,48.42-11.73,8.38-22.84,17.79-33.23,28.18-49.39,49.4-76.6,115.07-76.6,184.93v78.93c0,69.86,27.21,135.54,76.6,184.93,10.39,10.39,21.5,19.8,33.23,28.18,43.99,31.46,96.54,48.42,151.7,48.42,69.86,0,135.54-27.2,184.93-76.6,49.4-49.39,76.6-115.07,76.6-184.93v-78.93c0-69.86-27.2-135.53-76.6-184.93Zm-25.84,263.86c0,41.55-16.18,80.6-45.55,109.97s-68.43,45.56-109.98,45.56c-32.71,0-63.84-9.9-90.04-28.64-7.05-5.03-13.74-10.71-19.94-16.91-29.38-29.38-45.55-68.44-45.55-109.98v-78.93c0-41.54,16.18-80.6,45.56-109.98,6.19-6.2,12.89-11.88,19.88-16.88,26.25-18.77,57.38-28.67,90.09-28.67,41.55,0,80.6,16.18,109.97,45.55s45.56,68.44,45.56,109.98v78.93Z"/><path class="d" d="M1383.78,691.9v453.4c-5.12,61.51-31.54,118.65-75.68,162.8-10.66,10.66-22.09,20.29-34.15,28.83V691.9c0-155.47-60.54-301.65-170.48-411.59S847.36,109.83,691.9,109.83c-320.95,0-582.07,261.11-582.07,582.07v647.07c-11.73-8.38-22.84-17.79-33.23-28.18C27.21,1261.4,0,1195.72,0,1125.86v-433.96c0-93.38,18.3-184,54.4-269.34,34.85-82.39,84.73-156.38,148.25-219.91,63.53-63.52,137.52-113.4,219.92-148.25C507.9,18.3,598.52,0,691.9,0s183.99,18.3,269.32,54.4c82.39,34.85,156.38,84.73,219.9,148.26,63.53,63.52,113.41,137.51,148.26,219.91,36.1,85.34,54.4,175.95,54.4,269.33Z"/></g></g></svg>