<?xml version="1.0" encoding="UTF-8"?><svg xmlns="http://www.w3.org/2000/svg" viewBox="0 0 3997.51 4263.68"><defs><style>.d{fill:gray;}</style></defs><g id="a"/><g id="b"><g id="c"><g><path class="d" d="M240.69,1299.16C87.28,1577.2,0,1895.62,0,2234.21s87.28,657.3,240.69,935.35V1299.16Z"/><path class="d" d="M1998.6,269.44c-162.17,0-319.51,19.58-470.5,55.19v309.21c149.48-42.14,307.12-65.28,470.5-65.28,935.59,0,1694.19,743.35,1694.19,1660.61,0,413.07-154.32,790.83-408.9,1081.35l-48.31,169.44-106.91,375.08c524.57-354.02,868.85-947.82,868.85-1620.55-.31-1085.5-895.11-1965.06-1998.91-1965.06Z"/><path class="d" d="M1528.1,3253.84h1566.44c259.42-266.48,419.17-627.33,419.17-1024.67,0-820.21-678.29-1484.94-1515.11-1484.94-164.29,0-322.23,26.11-470.5,73.3V3253.84Z"/><path class="d" d="M1346.9,0H206.56l215.32,439.48V3824.5l-215.32,439.19H2823.65l237.37-831.79H1346.9V0Z"/></g></g></g></svg>