<?xml version="1.0" encoding="UTF-8"?><svg xmlns="http://www.w3.org/2000/svg" viewBox="0 0 4342.76 4261.65"><defs><style>.d{fill:gray;}</style></defs><g id="a"/><g id="b"><g id="c"><g><path class="d" d="M1216.4,940.81c562.98-429.21,1343.38-429.21,1906.36,0l388.1-479.73c-789.86-614.77-1896.29-614.77-2686.15,0l391.69,479.73Z"/><path class="d" d="M3633.04,561.7l-384.51,485.12c519.62,484.34,634.51,1263.97,276.7,1877.61l-855.26-822.91-398.88-898.38v1365.53l839.09,813.93c-557.52,415.66-1321.89,415.66-1879.41,0l846.27-813.93V1203.14l-398.88,898.38-855.26,817.52c-356.68-610.77-244.96-1386.85,269.51-1872.22l-384.51-485.12C256.93,967.22-.44,1545.33,0,2151.83c34.5,1199.22,1034.63,2143.41,2233.85,2108.91,1150.73-33.11,2075.8-958.18,2108.91-2108.91-.24-606.73-258.25-1184.79-709.72-1590.13Z"/></g></g></g></svg>