<?xml version="1.0" encoding="UTF-8"?><svg xmlns="http://www.w3.org/2000/svg" viewBox="0 0 1380.33 1410.5"><defs><style>.d{fill:none;stroke:#fff;stroke-linecap:round;stroke-linejoin:round;stroke-width:120px;}</style></defs><g id="a"/><g id="b"><g id="c"><g><polygon class="d" points="872.96 599.66 872.96 810.84 690.21 916.34 507.28 810.75 507.28 599.75 690.21 494.16 872.96 599.66"/><polygon class="d" points="872.96 599.66 872.96 810.84 690.21 916.34 507.28 810.75 507.28 599.75 690.21 494.16 872.96 599.66"/><path class="d" d="M1292.86,842.1l-95.77-55.29c-62.79-36.25-62.79-126.89,0-163.14l95.77-55.29c26.24-15.08,35.29-48.64,20.11-74.87l-127.99-221.7c-15.17-26.24-48.72-35.2-74.96-20.11l-95.78,55.29c-62.79,36.25-141.28-9.06-141.28-81.57V114.85c0-30.26-24.5-54.85-54.85-54.85h-255.98c-30.29,0-54.85,24.56-54.85,54.85v110.55c0,72.51-78.5,117.83-141.29,81.56l-95.67-55.25c-26.24-15.08-59.79-6.13-74.97,20.11l-127.99,221.7c-15.17,26.24-6.12,59.79,20.11,74.87l95.77,55.29c62.79,36.25,62.79,126.89,0,163.14l-95.77,55.29c-26.24,15.18-35.29,48.73-20.11,74.97l127.99,221.7c15.18,26.24,48.73,35.2,74.97,20.02l95.67-55.25c62.79-36.27,141.29,9.05,141.29,81.56v110.55c0,30.35,24.59,54.85,54.85,54.85h255.98c30.29,0,54.85-24.56,54.85-54.85v-110.58c0-72.5,78.49-117.82,141.28-81.57l95.78,55.29c26.24,15.18,59.79,6.22,74.96-20.02l127.99-221.7c15.18-26.24,6.13-59.79-20.11-74.97Zm-602.65,74.23l-182.94-105.59v-211l182.94-105.59,182.75,105.5v211.18l-182.75,105.5Z"/><polygon class="d" points="872.96 599.66 872.96 810.84 690.21 916.34 507.28 810.75 507.28 599.75 690.21 494.16 872.96 599.66"/></g></g></g></svg>