<?xml version="1.0" encoding="UTF-8"?><svg xmlns="http://www.w3.org/2000/svg" viewBox="0 0 1540.83 1525.77"><defs><style>.d{fill:none;stroke:#fff;stroke-linecap:round;stroke-linejoin:round;stroke-width:102.83px;}</style></defs><g id="a"/><g id="b"><g id="c"><g><path class="d" d="M921.57,309.72h411.42c86.43,0,156.43,70,156.43,156.43v258.11h-237.78c-86.43,0-156.43,70-156.43,156.43v52.01c0,86.43,70,156.43,156.43,156.43h237.78v228.78c0,86.43-70,156.43-156.43,156.43H207.85c-86.43,0-156.43-70-156.43-156.43V466.15c0-86.43,70-156.43,156.43-156.43h231.52"/><path class="d" d="M1489.41,724.26v364.88h-237.78c-86.43,0-156.43-70-156.43-156.43v-52.02c0-86.43,70-156.43,156.43-156.43h237.78Z"/><path class="d" d="M921.56,309.72H439.37c-25.43-30.51-23.47-75.87,5.08-104.42l131.02-131.01c30.51-30.51,80.17-30.51,110.67,0l235.43,235.43Z"/><path class="d" d="M805.42,193.57l118.89-119.28c30.5-30.5,80.17-30.5,110.68,0l235.43,235.43h-348.84"/></g></g></g></svg>