{
  "asset": {
    "generator": "Khronos glTF Blender I/O v3.4.50",
    "version": "2.0"
  },
  "scene": 0,
  "scenes": [
    {
      "name": "Scene",
      "nodes": [
        0,
        1,
        2,
        3,
        4,
        5
      ]
    }
  ],
  "nodes": [
    {
      "mesh": 0,
      "name": "Cube.001",
      "rotation": [
        0,
        0,
        0.16961415112018585,
        0.985510528087616
      ],
      "scale": [
        8.026847839355469,
        14.760046005249023,
        1.9192023277282715
      ]
    },
    {
      "mesh": 1,
      "name": "Cube.002",
      "rotation": [
        0.12864023447036743,
        0.10886707901954651,
        -0.09358078986406326,
        0.9812452793121338
      ],
      "scale": [
        8.026847839355469,
        14.760046005249023,
        1.919202208518982
      ]
    },
    {
      "mesh": 2,
      "name": "Cube.003",
      "rotation": [
        0.3524058163166046,
        -0.3645261824131012,
        -0.10410373657941818,
        0.8556244373321533
      ],
      "scale": [
        8.026847839355469,
        14.760046005249023,
        1.9192023277282715
      ],
      "translation": [
        3.056457281112671,
        0,
        2.585658073425293
      ]
    },
    {
      "mesh": 3,
      "name": "Cube.004",
      "rotation": [
        -0.2497013509273529,
        -0.3250536322593689,
        -0.11898534744977951,
        0.9043405652046204
      ],
      "scale": [
        8.026847839355469,
        14.760046005249023,
        1.9192023277282715
      ],
      "translation": [
        6.292081832885742,
        2.391150951385498,
        2.747645378112793
      ]
    },
    {
      "mesh": 4,
      "name": "Cube.005",
      "rotation": [
        -0.39591604471206665,
        0.12976880371570587,
        -0.3579433858394623,
        0.8356357216835022
      ],
      "scale": [
        8.026847839355469,
        14.760046005249023,
        1.9192023277282715
      ],
      "translation": [
        2.519805431365967,
        1.7612230777740479,
        1.564143180847168
      ]
    },
    {
      "mesh": 5,
      "name": "Cube.006",
      "rotation": [
        -0.4949745237827301,
        0.2064032256603241,
        -0.07162881642580032,
        0.8409918546676636
      ],
      "scale": [
        8.026847839355469,
        14.760046005249023,
        1.9192023277282715
      ],
      "translation": [
        2.519805431365967,
        1.7612230777740479,
        1.564143180847168
      ]
    }
  ],
  "materials": [
    {
      "doubleSided": true,
      "name": "Material.004",
      "pbrMetallicRoughness": {
        "baseColorFactor": [
          0.2160521149635315,
          0.15355074405670166,
          0.8000000715255737,
          1
        ],
        "metallicFactor": 0,
        "roughnessFactor": 0.4000000059604645
      }
    },
    {
      "doubleSided": true,
      "name": "Material",
      "pbrMetallicRoughness": {
        "baseColorFactor": [
          0.11571121215820312,
          0.009678450413048267,
          0.8000000715255737,
          1
        ],
        "metallicFactor": 0,
        "roughnessFactor": 0.5
      }
    },
    {
      "doubleSided": true,
      "name": "Material.006",
      "pbrMetallicRoughness": {
        "baseColorFactor": [
          0.0033519475255161524,
          0.8000000715255737,
          0,
          1
        ],
        "roughnessFactor": 0.5
      }
    },
    {
      "doubleSided": true,
      "name": "Material.007",
      "pbrMetallicRoughness": {
        "baseColorFactor": [
          0.018732910975813866,
          0.015894750133156776,
          0.8000000715255737,
          1
        ],
        "roughnessFactor": 0.5
      }
    },
    {
      "doubleSided": true,
      "name": "Material.008",
      "pbrMetallicRoughness": {
        "baseColorFactor": [
          0.8000000715255737,
          0.28996536135673523,
          0.02510988898575306,
          1
        ],
        "roughnessFactor": 0.5
      }
    },
    {
      "doubleSided": true,
      "name": "Material.009",
      "pbrMetallicRoughness": {
        "baseColorFactor": [
          0.8000000715255737,
          0.02389179915189743,
          0.10312815010547638,
          1
        ],
        "roughnessFactor": 0.5
      }
    }
  ],
  "meshes": [
    {
      "name": "Cube.004",
      "primitives": [
        {
          "attributes": {
            "POSITION": 0,
            "TEXCOORD_0": 1,
            "NORMAL": 2
          },
          "indices": 3,
          "material": 0
        }
      ]
    },
    {
      "name": "Cube.005",
      "primitives": [
        {
          "attributes": {
            "POSITION": 4,
            "TEXCOORD_0": 5,
            "NORMAL": 6
          },
          "indices": 7,
          "material": 1
        }
      ]
    },
    {
      "name": "Cube.006",
      "primitives": [
        {
          "attributes": {
            "POSITION": 8,
            "TEXCOORD_0": 9,
            "NORMAL": 10
          },
          "indices": 3,
          "material": 2
        }
      ]
    },
    {
      "name": "Cube.007",
      "primitives": [
        {
          "attributes": {
            "POSITION": 11,
            "TEXCOORD_0": 12,
            "NORMAL": 13
          },
          "indices": 3,
          "material": 3
        }
      ]
    },
    {
      "name": "Cube.008",
      "primitives": [
        {
          "attributes": {
            "POSITION": 14,
            "TEXCOORD_0": 15,
            "NORMAL": 16
          },
          "indices": 3,
          "material": 4
        }
      ]
    },
    {
      "name": "Cube.009",
      "primitives": [
        {
          "attributes": {
            "POSITION": 17,
            "TEXCOORD_0": 18,
            "NORMAL": 19
          },
          "indices": 3,
          "material": 5
        }
      ]
    }
  ],
  "accessors": [
    {
      "bufferView": 0,
      "componentType": 5126,
      "count": 24,
      "max": [
        1.0400707721710205,
        1.0845803022384644,
        1.0563498735427856
      ],
      "min": [
        -1.018488883972168,
        -1.0001057386398315,
        -1.6264420747756958
      ],
      "type": "VEC3"
    },
    {
      "bufferView": 1,
      "componentType": 5126,
      "count": 24,
      "type": "VEC2"
    },
    {
      "bufferView": 2,
      "componentType": 5126,
      "count": 24,
      "type": "VEC3"
    },
    {
      "bufferView": 3,
      "componentType": 5123,
      "count": 36,
      "type": "SCALAR"
    },
    {
      "bufferView": 4,
      "componentType": 5126,
      "count": 24,
      "max": [
        1.0652130842208862,
        1.063060998916626,
        4.06371545791626
      ],
      "min": [
        -0.9625083208084106,
        -0.8738704323768616,
        -2.788729667663574
      ],
      "type": "VEC3"
    },
    {
      "bufferView": 5,
      "componentType": 5126,
      "count": 24,
      "type": "VEC2"
    },
    {
      "bufferView": 6,
      "componentType": 5126,
      "count": 24,
      "type": "VEC3"
    },
    {
      "bufferView": 7,
      "componentType": 5123,
      "count": 36,
      "type": "SCALAR"
    },
    {
      "bufferView": 8,
      "componentType": 5126,
      "count": 24,
      "max": [
        1.0400707721710205,
        1.0845803022384644,
        1.0563498735427856
      ],
      "min": [
        -1.018488883972168,
        -1.0001057386398315,
        -1.6264420747756958
      ],
      "type": "VEC3"
    },
    {
      "bufferView": 9,
      "componentType": 5126,
      "count": 24,
      "type": "VEC2"
    },
    {
      "bufferView": 10,
      "componentType": 5126,
      "count": 24,
      "type": "VEC3"
    },
    {
      "bufferView": 11,
      "componentType": 5126,
      "count": 24,
      "max": [
        1.0400707721710205,
        1.0845803022384644,
        1.0563498735427856
      ],
      "min": [
        -1.018488883972168,
        -1.0001057386398315,
        -1.6264420747756958
      ],
      "type": "VEC3"
    },
    {
      "bufferView": 12,
      "componentType": 5126,
      "count": 24,
      "type": "VEC2"
    },
    {
      "bufferView": 13,
      "componentType": 5126,
      "count": 24,
      "type": "VEC3"
    },
    {
      "bufferView": 14,
      "componentType": 5126,
      "count": 24,
      "max": [
        1.0400707721710205,
        1.0845803022384644,
        1.0563498735427856
      ],
      "min": [
        -1.018488883972168,
        -1.0001057386398315,
        -1.6264420747756958
      ],
      "type": "VEC3"
    },
    {
      "bufferView": 15,
      "componentType": 5126,
      "count": 24,
      "type": "VEC2"
    },
    {
      "bufferView": 16,
      "componentType": 5126,
      "count": 24,
      "type": "VEC3"
    },
    {
      "bufferView": 17,
      "componentType": 5126,
      "count": 24,
      "max": [
        1.0400707721710205,
        1.0845803022384644,
        1.0563498735427856
      ],
      "min": [
        -1.018488883972168,
        -1.0001057386398315,
        -1.6264420747756958
      ],
      "type": "VEC3"
    },
    {
      "bufferView": 18,
      "componentType": 5126,
      "count": 24,
      "type": "VEC2"
    },
    {
      "bufferView": 19,
      "componentType": 5126,
      "count": 24,
      "type": "VEC3"
    }
  ],
  "bufferViews": [
    {
      "buffer": 0,
      "byteLength": 288,
      "byteOffset": 0,
      "target": 34962
    },
    {
      "buffer": 0,
      "byteLength": 192,
      "byteOffset": 288,
      "target": 34962
    },
    {
      "buffer": 0,
      "byteLength": 288,
      "byteOffset": 480,
      "target": 34962
    },
    {
      "buffer": 0,
      "byteLength": 72,
      "byteOffset": 768,
      "target": 34963
    },
    {
      "buffer": 0,
      "byteLength": 288,
      "byteOffset": 840,
      "target": 34962
    },
    {
      "buffer": 0,
      "byteLength": 192,
      "byteOffset": 1128,
      "target": 34962
    },
    {
      "buffer": 0,
      "byteLength": 288,
      "byteOffset": 1320,
      "target": 34962
    },
    {
      "buffer": 0,
      "byteLength": 72,
      "byteOffset": 1608,
      "target": 34963
    },
    {
      "buffer": 0,
      "byteLength": 288,
      "byteOffset": 1680,
      "target": 34962
    },
    {
      "buffer": 0,
      "byteLength": 192,
      "byteOffset": 1968,
      "target": 34962
    },
    {
      "buffer": 0,
      "byteLength": 288,
      "byteOffset": 2160,
      "target": 34962
    },
    {
      "buffer": 0,
      "byteLength": 288,
      "byteOffset": 2448,
      "target": 34962
    },
    {
      "buffer": 0,
      "byteLength": 192,
      "byteOffset": 2736,
      "target": 34962
    },
    {
      "buffer": 0,
      "byteLength": 288,
      "byteOffset": 2928,
      "target": 34962
    },
    {
      "buffer": 0,
      "byteLength": 288,
      "byteOffset": 3216,
      "target": 34962
    },
    {
      "buffer": 0,
      "byteLength": 192,
      "byteOffset": 3504,
      "target": 34962
    },
    {
      "buffer": 0,
      "byteLength": 288,
      "byteOffset": 3696,
      "target": 34962
    },
    {
      "buffer": 0,
      "byteLength": 288,
      "byteOffset": 3984,
      "target": 34962
    },
    {
      "buffer": 0,
      "byteLength": 192,
      "byteOffset": 4272,
      "target": 34962
    },
    {
      "buffer": 0,
      "byteLength": 288,
      "byteOffset": 4464,
      "target": 34962
    }
  ],
  "buffers": [
    {
      "uri": "test_data.bin",
      "byteLength": 4752
    }
  ]
}