<svg width="24" height="24" viewBox="0 0 24 24" fill="none" xmlns="http://www.w3.org/2000/svg">
<path d="M18.5378 6.66237C18.5378 5.99768 17.9991 5.46097 17.3369 5.46097C16.6747 5.46097 16.1355 5.99768 16.1355 6.66237C16.1355 7.32462 16.6747 7.86133 17.3369 7.86133C17.9991 7.86133 18.5378 7.32462 18.5378 6.66237Z" fill="url(#paint0_linear_1494_26162)"/>
<path d="M20.1388 16.0404C20.0943 17.0154 19.9312 17.5452 19.7958 17.8971C19.614 18.3636 19.397 18.6972 19.0451 19.0471C18.6972 19.397 18.3636 19.6135 17.8971 19.7933C17.5452 19.9308 17.0134 20.0943 16.0384 20.1408C14.9843 20.1872 14.6719 20.1971 11.9988 20.1971C9.32809 20.1971 9.01325 20.1872 7.95911 20.1408C6.98407 20.0943 6.45478 19.9308 6.10288 19.7933C5.63389 19.6135 5.30279 19.397 4.95289 19.0471C4.60051 18.6972 4.38356 18.3636 4.20417 17.8971C4.06873 17.5452 3.9032 17.0154 3.86116 16.0404C3.80979 14.9862 3.80038 14.6689 3.80038 12.0012C3.80038 9.32809 3.80979 9.01325 3.86116 7.95911C3.9032 6.98407 4.06873 6.45478 4.20417 6.09991C4.38356 5.63389 4.60051 5.30227 4.95289 4.95237C5.30279 4.60299 5.63389 4.38601 6.10288 4.20417C6.45478 4.06628 6.98407 3.90516 7.95911 3.85872C9.01325 3.81224 9.32809 3.80038 11.9988 3.80038C14.6719 3.80038 14.9843 3.81224 16.0384 3.85872C17.0134 3.90516 17.5452 4.06628 17.8971 4.20417C18.3636 4.38601 18.6972 4.60299 19.0451 4.95237C19.397 5.30227 19.614 5.63389 19.7958 6.09991C19.9312 6.45478 20.0943 6.98407 20.1388 7.95911C20.1877 9.01325 20.1996 9.32809 20.1996 12.0012C20.1996 14.6689 20.1877 14.9862 20.1388 16.0404ZM21.9392 7.87709C21.8903 6.81157 21.7222 6.0836 21.4727 5.44956C21.2187 4.79177 20.8781 4.2343 20.3207 3.67684C19.7657 3.12186 19.2082 2.78134 18.5504 2.52436C17.9139 2.27725 17.1884 2.10723 16.1224 2.06079C15.0564 2.00938 14.7159 2 11.9988 2C9.28409 2 8.94112 2.00938 7.87512 2.06079C6.81157 2.10723 6.08657 2.27725 5.44708 2.52436C4.79176 2.78134 4.2343 3.12186 3.67932 3.67684C3.12186 4.2343 2.78134 4.79177 2.52485 5.44956C2.27773 6.0836 2.10971 6.81157 2.0583 7.87709C2.01186 8.94309 2 9.28409 2 12.0012C2 14.7159 2.01186 15.0564 2.0583 16.1224C2.10971 17.1859 2.27773 17.9134 2.52485 18.5504C2.78134 19.2058 3.12186 19.7657 3.67932 20.3207C4.2343 20.8757 4.79176 21.2187 5.44708 21.4752C6.08657 21.7222 6.81157 21.8903 7.87512 21.9392C8.94112 21.9881 9.28409 22 11.9988 22C14.7159 22 15.0564 21.9881 16.1224 21.9392C17.1884 21.8903 17.9139 21.7222 18.5504 21.4752C19.2082 21.2187 19.7657 20.8757 20.3207 20.3207C20.8781 19.7657 21.2187 19.2058 21.4727 18.5504C21.7222 17.9134 21.8903 17.1859 21.9392 16.1224C21.9881 15.0564 22 14.7159 22 12.0012C22 9.28409 21.9881 8.94309 21.9392 7.87709Z" fill="url(#paint1_linear_1494_26162)"/>
<path d="M11.9998 15.3319C10.1599 15.3319 8.66688 13.8414 8.66688 12.0014C8.66688 10.1585 10.1599 8.66607 11.9998 8.66607C13.8402 8.66607 15.3352 10.1585 15.3352 12.0014C15.3352 13.8414 13.8402 15.3319 11.9998 15.3319ZM11.9998 6.86321C9.16355 6.86321 6.8665 9.16519 6.8665 12.0014C6.8665 14.8352 9.16355 17.1348 11.9998 17.1348C14.836 17.1348 17.1356 14.8352 17.1356 12.0014C17.1356 9.16519 14.836 6.86321 11.9998 6.86321Z" fill="url(#paint2_linear_1494_26162)"/>
<defs>
<linearGradient id="paint0_linear_1494_26162" x1="2.17965" y1="21.7932" x2="20.3335" y2="3.63951" gradientUnits="userSpaceOnUse">
<stop stop-color="#FFD521"/>
<stop offset="0.05" stop-color="#FFD521"/>
<stop offset="0.501119" stop-color="#F50000"/>
<stop offset="0.95" stop-color="#B900B4"/>
<stop offset="0.950079" stop-color="#B900B4"/>
<stop offset="1" stop-color="#B900B4"/>
</linearGradient>
<linearGradient id="paint1_linear_1494_26162" x1="2.1804" y1="21.8181" x2="20.3491" y2="3.64941" gradientUnits="userSpaceOnUse">
<stop stop-color="#FFD521"/>
<stop offset="0.05" stop-color="#FFD521"/>
<stop offset="0.501119" stop-color="#F50000"/>
<stop offset="0.95" stop-color="#B900B4"/>
<stop offset="0.950079" stop-color="#B900B4"/>
<stop offset="1" stop-color="#B900B4"/>
</linearGradient>
<linearGradient id="paint2_linear_1494_26162" x1="2.18615" y1="21.8188" x2="20.3505" y2="3.65448" gradientUnits="userSpaceOnUse">
<stop stop-color="#FFD521"/>
<stop offset="0.05" stop-color="#FFD521"/>
<stop offset="0.501119" stop-color="#F50000"/>
<stop offset="0.95" stop-color="#B900B4"/>
<stop offset="0.950079" stop-color="#B900B4"/>
<stop offset="1" stop-color="#B900B4"/>
</linearGradient>
</defs>
</svg>
