<svg width="24" height="24" viewBox="0 0 24 24" fill="none" xmlns="http://www.w3.org/2000/svg">
<path d="M10.0152 9.87701V9.09764C9.73986 9.05477 9.46177 9.03129 9.18304 9.02736C6.48457 9.02176 4.0955 10.7401 3.28518 13.2694C2.47487 15.7986 3.43135 18.5519 5.64645 20.0663C3.98718 18.3214 3.52646 15.7811 4.47007 13.5803C5.41369 11.3795 7.58542 9.92911 10.0152 9.87701Z" fill="#25F4EE"/>
<path d="M10.164 18.7054C11.6727 18.7034 12.9129 17.5354 12.9789 16.0542V2.83687H15.4364C15.3862 2.56069 15.3623 2.28053 15.3648 2H12.0038V15.2046C11.9479 16.6933 10.7048 17.8725 9.1888 17.8749C8.73577 17.8711 8.29013 17.7616 7.88858 17.5555C8.41642 18.2741 9.26207 18.7015 10.164 18.7054Z" fill="#25F4EE"/>
<path d="M20.0272 7.32081V6.58601C19.1228 6.58631 18.2385 6.32401 17.4853 5.83203C18.1456 6.58647 19.0379 7.10907 20.0272 7.32081Z" fill="#25F4EE"/>
<path d="M17.4888 5.83062C16.7468 5.00036 16.3378 3.93308 16.3381 2.82812H15.4409C15.6751 4.06278 16.4156 5.1485 17.4888 5.83062Z" fill="#FE2C55"/>
<path d="M9.18166 12.3325C7.88693 12.3391 6.76289 13.2107 6.45539 14.4465C6.14788 15.6824 6.73584 16.9653 7.88144 17.5582C7.2607 16.716 7.17302 15.603 7.65446 14.677C8.13591 13.7511 9.10514 13.1686 10.1633 13.1694C10.4455 13.1729 10.7257 13.2159 10.9955 13.2972V9.93693C10.72 9.89637 10.4419 9.87502 10.1633 9.87305H10.0138V12.4284C9.74262 12.3569 9.4623 12.3246 9.18166 12.3325Z" fill="#FE2C55"/>
<path d="M20.0256 7.32031V9.87563C18.3514 9.87243 16.7206 9.3517 15.3643 8.38716V15.1013C15.3571 18.4515 12.5912 21.1637 9.18177 21.1637C7.91559 21.166 6.67991 20.782 5.64517 20.065C7.37201 21.89 10.0595 22.4907 12.4198 21.5793C14.7801 20.668 16.3324 18.4301 16.333 15.9381V9.24319C17.6938 10.2014 19.3266 10.7154 21.0008 10.7125V7.42253C20.673 7.4215 20.3462 7.38725 20.0256 7.32031Z" fill="#FE2C55"/>
<path d="M15.3644 15.1V8.38594C16.7249 9.34494 18.3579 9.85899 20.0322 9.85525V7.29993C19.0431 7.09468 18.1486 6.57899 17.4838 5.83062C16.4106 5.1485 15.6701 4.06278 15.4359 2.82812H12.9785V16.0519C12.9293 17.2317 12.1252 18.2514 10.9749 18.5927C9.82454 18.9339 8.58047 18.5218 7.87514 17.5659C6.72954 16.9731 6.14158 15.6902 6.44909 14.4543C6.75659 13.2184 7.88064 12.3468 9.17536 12.3403C9.4576 12.3428 9.73795 12.3858 10.0075 12.4681V9.91274C7.56411 9.95341 5.37597 11.4089 4.42967 13.6229C3.48338 15.8368 3.95769 18.3911 5.63876 20.134C6.6837 20.8275 7.92118 21.1867 9.18186 21.1625C12.5913 21.1625 15.3572 18.4503 15.3644 15.1Z" fill="white"/>
</svg>
