<svg width="24" height="24" viewBox="0 0 24 24" fill="none" xmlns="http://www.w3.org/2000/svg">
<path d="M21.75 5.94988C21.0249 6.26732 20.2521 6.47774 19.4466 6.5799C20.2753 6.08613 20.9079 5.31017 21.2052 4.37491C20.4326 4.83464 19.5794 5.15937 18.6702 5.34061C17.9365 4.56095 16.8909 4.07812 15.7501 4.07812C13.5369 4.07812 11.7551 5.87081 11.7551 8.06855C11.7551 8.38478 11.7819 8.68882 11.8477 8.97826C8.52415 8.81652 5.58333 7.22691 3.60771 4.80541C3.26283 5.40259 3.06048 6.08608 3.06048 6.82191C3.06048 8.20355 3.77345 9.42825 4.83621 10.1373C4.19391 10.1252 3.56384 9.93911 3.03003 9.64597V9.68975C3.03003 11.6284 4.41574 13.2387 6.23289 13.6096C5.90749 13.6984 5.55283 13.741 5.18475 13.741C4.92882 13.741 4.67043 13.7264 4.42791 13.6728C4.9459 15.2527 6.4157 16.4142 8.16338 16.4519C6.80326 17.5137 5.07632 18.1534 3.20673 18.1534C2.87887 18.1534 2.56444 18.1388 2.25 18.0986C4.02082 19.2382 6.1195 19.8889 8.38271 19.8889C15.7391 19.8889 19.7609 13.8078 19.7609 8.53678C19.7609 8.36044 19.7548 8.19016 19.7463 8.02112C20.5397 7.45922 21.2063 6.75748 21.7499 5.94988H21.75Z" fill="#1DA1F2"/>
</svg>
