<svg width="24" height="24" viewBox="0 0 24 24" fill="none" xmlns="http://www.w3.org/2000/svg">
<path d="M22.0467 6.75188C21.8067 5.86449 21.1001 5.16255 20.1935 4.92416C18.5535 4.50033 11.9938 4.50033 11.9938 4.50033C11.9938 4.50033 5.55413 4.47383 3.91419 4.89766C3.00756 5.13605 2.14092 5.86449 1.90094 6.75188C1.46096 8.36766 1.50095 11.7184 1.50095 11.7184C1.50095 11.7184 1.46096 15.0692 1.90094 16.6851C2.14092 17.5724 3.02087 18.3008 3.91419 18.5392C5.55413 18.9763 11.9938 18.9366 11.9938 18.9366C11.9938 18.9366 18.4335 18.9631 20.0735 18.5392C20.9801 18.3008 21.82 17.5724 22.06 16.6851C22.5 15.0825 22.5 11.7184 22.5 11.7184C22.5 11.7184 22.4867 8.36766 22.0467 6.75183V6.75188ZM9.98057 14.9236V8.51333L15.2204 11.7184L9.98057 14.9236Z" fill="#D60000"/>
</svg>
