<?xml version="1.0" encoding="UTF-8"?><svg xmlns="http://www.w3.org/2000/svg" viewBox="0 0 1905.05 1495.46"><defs><style>.d{fill:none;stroke:gray;stroke-linecap:round;stroke-linejoin:round;stroke-width:120px;}</style></defs><g id="a"/><g id="b"><g id="c"><g><path class="d" d="M687.05,60h530.95c119.1,0,215.79,96.69,215.79,215.79v475.49c0,68.07-55.26,123.33-123.33,123.33H594.59c-68.07,0-123.33-55.26-123.33-123.33V275.79c0-119.1,96.69-215.79,215.79-215.79Z"/><path class="d" d="M455.71,442.17H244.56c-101.93,0-184.56,78.04-184.56,174.3v439.29c0,96.26,82.63,174.3,184.56,174.3H1660.49c101.93,0,184.56-78.04,184.56-174.3v-439.29c0-96.26-82.63-174.3-184.56-174.3h-208.34"/><g><line class="d" x1="404.33" y1="1230.1" x2="305.49" y2="1435.46"/><line class="d" x1="1572.46" y1="1230.07" x2="1671.3" y2="1435.44"/></g></g></g></g></svg>