<?xml version="1.0" encoding="UTF-8"?><svg xmlns="http://www.w3.org/2000/svg" viewBox="0 0 1490.16 1357.59"><defs><style>.d{fill:none;stroke:#fff;stroke-linecap:round;stroke-linejoin:round;stroke-width:97.74px;}</style></defs><g id="a"/><g id="b"><g id="c"><g><line class="d" x1="513.01" y1="216.76" x2="513.01" y2="1287.21"/><line class="d" x1="977.15" y1="48.87" x2="977.15" y2="1140.82"/><path class="d" d="M950.62,53.65l-411.09,153.22c-17.11,6.38-35.94,6.38-53.05,0L151.35,81.96c-49.63-18.5-102.48,18.2-102.48,71.17v934.94c0,31.71,19.71,60.09,49.42,71.17l388.19,144.69c17.11,6.38,35.94,6.38,53.05,0l411.09-153.23c17.11-6.38,35.94-6.38,53.05,0l335.14,124.92c49.63,18.5,102.48-18.2,102.48-71.17V269.51c0-31.71-19.71-60.09-49.42-71.17L1003.68,53.65c-17.11-6.38-35.94-6.38-53.05,0Z"/></g></g></g></svg>