<?xml version="1.0" encoding="UTF-8"?><svg xmlns="http://www.w3.org/2000/svg" viewBox="0 0 1394.06 1393.96"><defs><style>.d{fill:none;stroke:gray;stroke-linecap:round;stroke-linejoin:round;stroke-width:120px;}</style></defs><g id="a"/><g id="b"><g id="c"><path class="d" d="M1334.06,813.77v434.01c0,47.59-38.58,86.17-86.17,86.17h-253.99c-47.59,0-86.17-38.58-86.17-86.17v-366.02c0-47.59-38.58-86.17-86.17-86.17h-249.04c-47.59,0-86.17,38.58-86.17,86.17v366.02c0,47.59-38.58,86.17-86.17,86.17H146.17c-47.59,0-86.17-38.58-86.17-86.17V612.45c0-21.79,8.26-42.77,23.1-58.72L517.22,87.45c16.3-17.51,39.15-27.45,63.07-27.45h0c416.3,0,753.77,337.47,753.77,753.77Z"/></g></g></svg>