<?xml version="1.0" encoding="UTF-8"?><svg xmlns="http://www.w3.org/2000/svg" viewBox="0 0 1394.06 1242.63"><defs><style>.d{fill:none;stroke:gray;stroke-linecap:round;stroke-linejoin:round;stroke-width:120px;}</style></defs><g id="a"/><g id="b"><g id="c"><g><path class="d" d="M697.03,198.94v969.26c0,10.81-11.3,17.84-20.82,12.73-72.14-38.67-322.36-161.26-602.15-165.28-7.78-.11-14.06-6.33-14.06-14.11V99.64c0-4.59,2.02-8.94,5.8-11.54,13.17-9.05,51.12-28.1,137.07-28.1,112.73,0,494.16,72.09,494.16,138.94Z"/><path class="d" d="M697.03,198.94v969.26c0,10.81,11.3,17.84,20.82,12.73,72.14-38.67,322.36-161.26,602.15-165.28,7.78-.11,14.06-6.33,14.06-14.11V99.64c0-4.59-2.02-8.94-5.8-11.54-13.17-9.05-51.12-28.1-137.07-28.1-112.73,0-494.16,72.09-494.16,138.94Z"/><line class="d" x1="235.97" y1="311.69" x2="520.08" y2="415.19"/><line class="d" x1="1153.55" y1="311.69" x2="869.45" y2="415.19"/><line class="d" x1="1153.55" y1="707.72" x2="869.45" y2="811.23"/><polygon class="d" points="235.97 543.1 235.97 808.03 520.08 909.59 520.08 644.66 235.97 543.1"/></g></g></g></svg>