<?xml version="1.0" encoding="UTF-8"?><svg xmlns="http://www.w3.org/2000/svg" viewBox="0 0 1587.55 1587.55"><defs><style>.d{fill:none;stroke:gray;stroke-linecap:round;stroke-linejoin:round;stroke-width:120px;}</style></defs><g id="a"/><g id="b"><g id="c"><g><path class="d" d="M1502.31,854.66l-647.56,647.65c-33.65,33.66-88.22,33.66-121.87,0L85.24,854.66c-33.65-33.65-33.65-88.22,0-121.87L732.89,85.24c33.65-33.65,88.21-33.65,121.86,0l647.56,647.56c33.65,33.65,33.65,88.21,0,121.86Z"/><path class="d" d="M1078.57,857l-244.92,598.42c-14.61,35.69-65.14,35.69-79.75,0l-244.92-598.42L752.95,134.66c13.19-39.06,68.45-39.06,81.64,0l243.98,722.34Z"/><path class="d" d="M69.7,753.95c136.58,33.82,289.33,58.38,452.41,71.31,87.79,7,178.7,10.77,271.66,10.77s183.87-3.77,271.66-10.77c163.08-12.93,315.82-37.49,452.41-71.31"/></g></g></g></svg>