<?xml version="1.0" encoding="UTF-8"?><svg xmlns="http://www.w3.org/2000/svg" viewBox="0 0 1502.88 1456.32"><defs><style>.d{fill:none;stroke:gray;stroke-linecap:round;stroke-linejoin:round;stroke-width:120px;}</style></defs><g id="a"/><g id="b"><g id="c"><g><path class="d" d="M194.93,752.36l-94.12,94.72c-64.65,66.67-51.01,185.02,30.41,263.96l225.82,218.94c40.83,39.59,90.82,61.87,138.67,65.67,75.9,6.38,118.29-35.37,126.1-43.43,115.31-124.01,158.44-92.83,198.91-111.43"/><path class="d" d="M1357.6,435.91l-315.3-298.6c-111.26-105.38-288.93-102.7-396.8,5.99l-75.09,79.85c-26.98,27.17-26.29,70.56,1.53,96.9l76.19,72.16c-48.05-45.34-108.32-70.48-170.26-75.83-81.47-7.01-165.12,20.67-226.17,82.17l-8.06,8.12c-61.28,61.74-87.02,144.27-77.32,223.6,7.65,60.21,35.35,118.43,83.46,163.99l389.84,369.2c111.31,105.42,288.89,102.73,396.81-5.99l91.07-91.75,236.24-242.22c107.88-108.68,105.14-282.21-6.13-387.59Z"/><path class="d" d="M432.78,589.11l122.01,118.3c54.36,52.71,132.78,59.94,175.23,16.16l38.8-44.86h0c45.72-52.72,32.06-141.98-30.85-201.49l-13.1-12.39-76.76-72.62"/><path class="d" d="M746.21,708.25l294.39,270.99c43.68,40.2,135.89,37.78,177.36-4.67"/></g></g></g></svg>