<?xml version="1.0" encoding="UTF-8"?><svg xmlns="http://www.w3.org/2000/svg" viewBox="0 0 4292.51 3525.83"><defs><style>.d{fill:gray;}</style></defs><g id="a"/><g id="b"><g id="c"><path class="d" d="M4292.51,1695.99V27.04c0-25.74-32.18-36.47-49.34-17.16l-1823.4,2278.18c-15.02,17.16-2.15,45.05,21.45,45.05h1317.14c36.47,0,68.65-17.16,90.1-45.05l416.17-519.13c17.16-19.31,27.89-45.05,27.89-72.94h0ZM27.89,1771.07l1368.63,1711.85c21.45,27.89,55.77,42.9,92.24,42.9h1317.14c23.6,0,36.47-25.74,21.45-42.9L49.34,12.02C32.18-7.28,0,3.44,0,29.19V1698.14c2.15,25.74,10.73,51.48,27.89,72.94h0Z"/></g></g></svg>